<svg xmlns="http://www.w3.org/2000/svg" viewBox="0 0 39.59 39.59"><defs><style>.cls-1{fill:#fff;}</style></defs><g id="Layer_2" data-name="Layer 2"><g id="questionb"><path class="cls-1" d="M19.8,0A19.8,19.8,0,1,0,39.59,19.8,19.79,19.79,0,0,0,19.8,0Zm1.39,31.14a2.32,2.32,0,0,1-1.57.6,2.35,2.35,0,0,1-1.61-.6,2.07,2.07,0,0,1-.69-1.67,2.16,2.16,0,0,1,.66-1.6,2.28,2.28,0,0,1,1.64-.65,2.22,2.22,0,0,1,2.25,2.25A2.14,2.14,0,0,1,21.19,31.14Zm5.64-15a6.78,6.78,0,0,1-1.24,1.67c-.47.47-1.33,1.26-2.57,2.36a10.73,10.73,0,0,0-.83.83,3.28,3.28,0,0,0-.46.65,2.67,2.67,0,0,0-.23.59c-.06.19-.14.54-.25,1a1.69,1.69,0,0,1-1.8,1.58,1.84,1.84,0,0,1-1.32-.52,2,2,0,0,1-.54-1.53A5.69,5.69,0,0,1,18,20.6,5.77,5.77,0,0,1,19,19a23,23,0,0,1,1.75-1.67c.64-.56,1.11-1,1.4-1.28a3.77,3.77,0,0,0,.72-1,2.26,2.26,0,0,0,.3-1.14,2.69,2.69,0,0,0-.9-2.05A3.3,3.3,0,0,0,20,11a3.2,3.2,0,0,0-2.45.84,6.77,6.77,0,0,0-1.33,2.47q-.51,1.71-1.95,1.71a1.91,1.91,0,0,1-1.43-.6,1.79,1.79,0,0,1-.58-1.29,5.49,5.49,0,0,1,.92-2.91,7.19,7.19,0,0,1,2.69-2.44,8.54,8.54,0,0,1,4.13-1,8.81,8.81,0,0,1,3.87.81,6.25,6.25,0,0,1,2.59,2.2,5.41,5.41,0,0,1,.92,3A4.69,4.69,0,0,1,26.83,16.14Z"/></g></g></svg>